HIERARCHY
ROOT Hips
{
	OFFSET 0.00000 0.00000 0.00000
	CHANNELS 6 Xposition Yposition Zposition Zrotation Yrotation Xrotation 
	JOINT LHipJoint
	{
		OFFSET 0 0 0
		CHANNELS 3 Zrotation Yrotation Xrotation
		JOINT LeftUpLeg
		{
			OFFSET 1.86795 -1.59681 0.65681
			CHANNELS 3 Zrotation Yrotation Xrotation
			JOINT LeftLeg
			{
				OFFSET 2.30491 -6.33268 0.00000
				CHANNELS 3 Zrotation Yrotation Xrotation
				JOINT LeftFoot
				{
					OFFSET 2.46780 -6.78022 0.00000
					CHANNELS 3 Zrotation Yrotation Xrotation
					JOINT LeftToeBase
					{
						OFFSET 0.07897 -0.21698 1.59652
						CHANNELS 3 Zrotation Yrotation Xrotation
						End Site
						{
							OFFSET 0.00000 -0.00000 0.82310
						}
					}
				}
			}
		}
	}
	JOINT RHipJoint
	{
		OFFSET 0 0 0
		CHANNELS 3 Zrotation Yrotation Xrotation
		JOINT RightUpLeg
		{
			OFFSET -1.93650 -1.59681 0.65681
			CHANNELS 3 Zrotation Yrotation Xrotation
			JOINT RightLeg
			{
				OFFSET -2.29410 -6.30299 0.00000
				CHANNELS 3 Zrotation Yrotation Xrotation
				JOINT RightFoot
				{
					OFFSET -2.48738 -6.83403 0.00000
					CHANNELS 3 Zrotation Yrotation Xrotation
					JOINT RightToeBase
					{
						OFFSET -0.08699 -0.23899 1.89395
						CHANNELS 3 Zrotation Yrotation Xrotation
						End Site
						{
							OFFSET -0.00000 -0.00000 0.96904
						}
					}
				}
			}
		}
	}
	JOINT LowerBack
	{
		OFFSET 0 0 0
		CHANNELS 3 Zrotation Yrotation Xrotation
		JOINT Spine
		{
			OFFSET 0.03629 1.99740 -0.07548
			CHANNELS 3 Zrotation Yrotation Xrotation
			JOINT Spine1
			{
				OFFSET 0.03970 1.94298 0.17218
				CHANNELS 3 Zrotation Yrotation Xrotation
				JOINT Neck
				{
					OFFSET 0 0 0
					CHANNELS 3 Zrotation Yrotation Xrotation
					JOINT Neck1
					{
						OFFSET -0.05054 1.79469 0.04241
						CHANNELS 3 Zrotation Yrotation Xrotation
						JOINT Head
						{
							OFFSET 0.05195 1.78475 -0.22133
							CHANNELS 3 Zrotation Yrotation Xrotation
							End Site
							{
								OFFSET 0.02420 1.80711 -0.07950
							}
						}
					}
				}
				JOINT LeftShoulder
				{
					OFFSET 0 0 0
					CHANNELS 3 Zrotation Yrotation Xrotation
					JOINT LeftArm
					{
						OFFSET 2.92134 1.19850 0.36056
						CHANNELS 3 Zrotation Yrotation Xrotation
						JOINT LeftForeArm
						{
							OFFSET 4.84137 -0.00000 0.00000
							CHANNELS 3 Zrotation Yrotation Xrotation
							JOINT LeftHand
							{
								OFFSET 3.24520 -0.00000 -0.00000
								CHANNELS 3 Zrotation Yrotation Xrotation
								JOINT LeftFingerBase
								{
									OFFSET 0 0 0
									CHANNELS 3 Zrotation Yrotation Xrotation
									JOINT LeftHandIndex1
									{
										OFFSET 0.52122 -0.00000 0.00000
										CHANNELS 3 Zrotation Yrotation Xrotation
										End Site
										{
											OFFSET 0.42022 -0.00000 0.00000
										}
									}
								}
								JOINT LThumb
								{
									OFFSET 0 0 0
									CHANNELS 3 Zrotation Yrotation Xrotation
									End Site
									{
										OFFSET 0.42664 -0.00000 0.42664
									}
								}
							}
						}
					}
				}
				JOINT RightShoulder
				{
					OFFSET 0 0 0
					CHANNELS 3 Zrotation Yrotation Xrotation
					JOINT RightArm
					{
						OFFSET -2.84327 1.20795 0.50191
						CHANNELS 3 Zrotation Yrotation Xrotation
						JOINT RightForeArm
						{
							OFFSET -4.72284 -0.00000 0.00000
							CHANNELS 3 Zrotation Yrotation Xrotation
							JOINT RightHand
							{
								OFFSET -3.23459 -0.00000 0.00000
								CHANNELS 3 Zrotation Yrotation Xrotation
								JOINT RightFingerBase
								{
									OFFSET 0 0 0
									CHANNELS 3 Zrotation Yrotation Xrotation
									JOINT RightHandIndex1
									{
										OFFSET -0.30742 -0.00000 0.00000
										CHANNELS 3 Zrotation Yrotation Xrotation
										End Site
										{
											OFFSET -0.24785 -0.00000 0.00000
										}
									}
								}
								JOINT RThumb
								{
									OFFSET 0 0 0
									CHANNELS 3 Zrotation Yrotation Xrotation
									End Site
									{
										OFFSET -0.25163 -0.00000 0.25163
									}
								}
							}
						}
					}
				}
			}
		}
	}
}
MOTION
Frames: 11
Frame Time: .0083333
26.0219 16.0733 -30.0052 0 0 0 0 0 0 -21 0 0 0 0 0 0 0 0 0 0 0 0 0 0 21 0 0 0 0 0 0 0 0 0 0 0 0 0 0 0 0 0 0 0 0 0 0 -16 0 0 21 0 0 11 0 0 0 -8 0 0 0 0 0 0 0 0 0 0 0 0 0 0 0 0 0 0 0 0 8 0 0 0 0 0 0 0 0 0 0 0 0 0 0 0 0 0
26.0219 16.0733 -30.0052 2.0577 -44.0029 13.5319 0.0000 0.0000 0.0000 -25.6817 -52.6696 1.2280 1.2643 7.1272 20.0928 5.4350 26.1118 -56.9655 6.1010 14.5255 45.3858 0.0000 0.0000 0.0000 14.3638 29.3742 -22.7902 -2.5162 -9.8673 28.5480 3.2705 -31.0356 -21.2287 -0.3629 -3.8696 10.7101 -0.9324 -0.4543 2.9379 -0.6734 -0.6456 0.5578 -0.1424 -0.3217 -1.0723 -5.8051 1.5050 -13.2935 5.5658 2.4059 9.8203 2.8763 1.3432 4.9791 0.0000 -0.0000 0.0000 -85.3924 8.8043 24.6999 25.4514 -36.6619 -8.5580 -0.0000 -0.0000 27.0016 -4.9093 43.5329 -3.3857 -7.1250 0.0000 -0.0000 -55.0501 65.2825 -31.0283 0.0000 -0.0000 0.0000 81.9350 -6.2665 39.7016 -21.2622 32.1331 -6.1888 0.0000 -0.0000 -9.0998 -21.3819 24.2307 -9.1287 7.1250 -0.0000 -0.0000 4.8876 -4.2645 4.5275
25.9969 16.0790 -30.0138 1.8760 -43.8214 13.7771 0.0000 0.0000 0.0000 -25.2022 -52.4005 0.9008 1.2600 7.1156 20.0582 5.2898 25.9511 -56.4377 6.0755 14.5011 45.2840 0.0000 0.0000 0.0000 14.6024 29.3459 -22.8137 -2.5039 -9.8451 28.4765 3.2889 -31.1435 -21.4388 -0.3619 -3.8644 10.6954 -0.7081 -0.5465 2.9490 -0.6285 -0.7607 0.5774 -0.2178 -0.3798 -1.0603 -5.8704 1.5499 -13.1378 5.6458 2.4731 9.3593 2.9068 1.3801 4.8045 -0.0000 0.0000 0.0000 -85.5869 8.8959 24.2017 25.6287 -36.8397 -8.6641 -0.0000 -0.0000 27.5034 -4.4697 42.6053 -3.0291 -7.1250 0.0000 -0.0000 -53.1066 64.8443 -29.1396 -0.0000 0.0000 0.0000 81.9091 -6.2604 39.7889 -21.4419 32.3405 -6.2847 0.0000 -0.0000 -9.1149 -21.3468 24.4334 -9.1829 7.1250 -0.0000 -0.0000 4.9299 -4.0599 4.5858
25.9685 16.0796 -30.0152 2.1200 -43.9231 13.6352 0.0000 0.0000 0.0000 -25.6203 -52.9866 1.5270 1.2376 7.0544 19.8767 5.7256 25.4834 -57.3987 6.3241 14.7352 46.2690 0.0000 0.0000 0.0000 14.5147 29.2555 -22.8850 -2.5205 -9.8752 28.5734 3.5433 -31.7496 -20.0643 -0.1873 -2.7875 7.6876 -1.0032 -0.6389 2.9920 -0.5341 -0.8927 0.5382 0.0501 -0.4443 -1.1184 -5.9696 1.7218 -12.6894 5.4889 2.7306 8.8449 2.8759 1.4908 4.5572 0.0000 0.0000 0.0000 -86.0713 9.2591 23.4327 25.9109 -37.1206 -8.8338 -0.0000 -0.0000 28.1442 -4.2220 41.4852 -2.7996 -7.1250 0.0000 -0.0000 -51.0937 64.2031 -27.0316 0.0000 0.0000 0.0000 81.5693 -6.3812 40.2810 -21.6358 32.5629 -6.3887 0.0000 -0.0000 -9.3016 -21.5398 24.3598 -9.2469 7.1250 -0.0000 -0.0000 4.8038 -4.1028 4.4638
25.9371 16.0759 -30.0135 2.3819 -44.0818 13.4535 0.0000 0.0000 0.0000 -26.0839 -53.4545 2.1006 1.2295 7.0321 19.8105 6.0948 25.2130 -58.2860 6.4782 14.8763 46.8721 0.0000 0.0000 0.0000 14.4253 29.2775 -22.8197 -2.5207 -9.8754 28.5741 3.8055 -32.3885 -18.3570 -0.0732 -1.7457 4.8035 -1.2612 -0.6422 3.0845 -0.5141 -0.9070 0.5095 0.2171 -0.4500 -1.1951 -5.8963 1.8313 -12.8381 5.2898 2.8956 8.8530 2.8159 1.5631 4.5784 0.0000 0.0000 0.0000 -86.0931 9.3296 23.3383 25.9874 -37.1963 -8.8801 -0.0000 -0.0000 28.2254 -3.6021 41.1899 -2.3740 -7.1250 0.0000 -0.0000 -50.0768 64.1849 -26.3390 0.0000 0.0000 0.0000 81.3615 -6.5036 40.6143 -21.8403 32.7961 -6.4991 0.0000 -0.0000 -9.5520 -21.9472 24.0188 -9.3146 7.1250 -0.0000 -0.0000 4.5177 -4.3866 4.1722
25.9128 16.0752 -30.0188 2.3658 -43.9650 13.6912 0.0000 0.0000 0.0000 -25.5407 -53.1394 1.5196 1.2184 7.0015 19.7197 5.8743 25.1248 -57.6026 6.4144 14.8182 46.6230 0.0000 0.0000 0.0000 14.3967 29.5232 -22.9594 -2.5224 -9.8786 28.5843 3.8089 -32.4894 -19.0690 -0.1337 -2.3570 6.4934 -1.0072 -0.4891 3.0957 -0.7124 -0.6968 0.6362 -0.1374 -0.3474 -1.0798 -5.5323 1.6149 -14.0965 5.3093 2.5903 9.2175 2.7684 1.4387 4.9206 -0.0000 0.0000 0.0000 -85.4326 8.7485 24.0902 25.9396 -37.1490 -8.8511 -0.0000 -0.0000 27.4514 -3.0583 41.2152 -2.0161 -7.1250 0.0000 -0.0000 -49.6209 64.3549 -26.2297 -0.0000 0.0000 0.0000 81.8401 -6.2399 39.9348 -22.0044 32.9820 -6.5882 0.0000 -0.0000 -9.4207 -21.8550 24.0344 -9.2777 7.1250 -0.0000 -0.0000 4.5762 -4.3866 4.2266
25.8899 16.0797 -30.0284 2.3379 -43.7067 14.0522 0.0000 0.0000 0.0000 -24.6253 -52.4596 0.3705 1.2102 6.9787 19.6524 5.3029 25.2821 -56.0334 6.1815 14.6020 45.7060 0.0000 0.0000 0.0000 14.3009 29.8195 -23.2103 -2.5218 -9.8774 28.5808 3.7232 -32.4214 -20.4984 -0.2529 -3.2356 8.9353 -0.8314 -0.6601 2.9361 -0.6188 -0.9159 0.5293 -0.1327 -0.4566 -1.1001 -5.7840 1.6873 -13.9774 5.2887 2.7418 8.8550 2.8061 1.5037 4.7766 -0.0000 -0.0000 0.0000 -85.6218 8.8520 23.7844 26.1579 -37.3642 -8.9833 -0.0000 -0.0000 26.4266 -3.5554 41.4148 -2.3536 -7.1250 0.0000 -0.0000 -50.3826 64.3457 -26.7213 -0.0000 -0.0000 0.0000 81.5319 -6.2756 40.3347 -22.1801 33.1800 -6.6842 0.0000 -0.0000 -9.3995 -21.3941 24.4622 -9.2149 7.1250 -0.0000 -0.0000 4.9038 -4.0218 4.5649
25.8597 16.0838 -30.0340 2.4070 -43.5995 14.0894 0.0000 0.0000 0.0000 -24.3718 -52.0001 0.0262 1.2064 6.9683 19.6216 5.0148 25.4120 -55.2580 5.9986 14.4270 44.9762 0.0000 0.0000 0.0000 14.3274 29.9740 -23.1449 -2.5191 -9.8725 28.5649 3.8003 -32.6782 -20.5357 -0.2294 -3.0828 8.5094 -0.8223 -0.6806 2.9677 -0.6008 -0.9430 0.5302 -0.1179 -0.4701 -1.1166 -5.6091 1.6925 -13.9877 4.9472 2.7619 8.5828 2.6679 1.4986 4.7003 0.0000 -0.0000 0.0000 -85.6061 8.7881 23.8366 26.2380 -37.4427 -9.0319 -0.0000 -0.0000 26.4227 -4.0329 41.6967 -2.6851 -7.1250 0.0000 -0.0000 -51.2547 64.3934 -27.3562 0.0000 -0.0000 0.0000 81.4180 -6.3107 40.4108 -22.3376 33.3565 -6.7706 0.0000 -0.0000 -9.5322 -21.4072 24.4613 -9.2207 7.1250 -0.0000 -0.0000 4.8957 -4.0205 4.5574
25.8324 16.0859 -30.0379 2.6941 -43.5433 13.8892 0.0000 0.0000 0.0000 -24.7710 -52.3788 0.4644 1.2065 6.9685 19.6221 5.1909 25.2985 -55.7107 6.0633 14.4894 45.2351 0.0000 0.0000 0.0000 14.2717 29.6781 -23.1332 -2.5156 -9.8663 28.5448 3.8543 -32.7601 -19.9388 -0.1627 -2.5986 7.1631 -1.0039 -0.7690 3.0723 -0.6045 -1.0680 0.5741 -0.0139 -0.5321 -1.1265 -5.4782 1.7399 -14.0624 4.6753 2.8416 8.2691 2.5638 1.5269 4.6170 -0.0000 0.0000 0.0000 -85.6984 8.7712 23.6016 26.2365 -37.4413 -9.0310 -0.0000 -0.0000 27.2619 -3.9323 41.4765 -2.6067 -7.1250 0.0000 -0.0000 -50.8191 64.2792 -26.9357 -0.0000 0.0000 0.0000 81.3437 -6.1913 40.5018 -22.3771 33.4006 -6.7923 0.0000 -0.0000 -9.5581 -21.6076 24.1922 -9.2195 7.1250 -0.0000 -0.0000 4.7448 -4.2654 4.3942
25.8092 16.0886 -30.0445 2.7394 -43.4271 14.0418 0.0000 0.0000 0.0000 -24.7332 -53.0422 0.6078 1.2110 6.9809 19.6588 5.3851 25.2811 -56.2760 6.1436 14.5660 45.5552 0.0000 0.0000 0.0000 14.2622 29.5049 -23.3450 -2.5088 -9.8539 28.5050 3.9192 -32.8790 -19.2817 -0.1187 -2.2210 6.1167 -0.9721 -0.9310 3.0418 -0.5125 -1.2809 0.5529 0.0705 -0.6382 -1.1283 -5.6693 1.8440 -13.8688 4.6191 3.0259 7.5731 2.5763 1.6115 4.3585 0.0000 -0.0000 0.0000 -85.8590 8.8166 23.2391 26.3432 -37.5456 -9.0960 -0.0000 -0.0000 27.1921 -3.9358 41.0065 -2.5848 -7.1250 0.0000 -0.0000 -50.0988 63.9704 -26.1121 0.0000 -0.0000 0.0000 81.1218 -5.9773 40.7912 -22.3460 33.3659 -6.7752 0.0000 -0.0000 -9.5149 -21.4635 24.5007 -9.2607 7.1250 -0.0000 -0.0000 4.8652 -3.9696 4.5334
25.7797 16.0942 -30.0545 2.3350 -43.3926 14.4378 0.0000 0.0000 0.0000 -24.1230 -53.0075 0.3611 1.2184 7.0016 19.7200 5.2681 25.6280 -56.1589 6.0148 14.4427 45.0411 0.0000 0.0000 0.0000 14.5937 30.0419 -23.2288 -2.4993 -9.8366 28.4493 4.0140 -33.1857 -19.2909 -0.1129 -2.1669 5.9670 -0.6651 -0.9306 3.1193 -0.3997 -1.2694 0.5712 0.0148 -0.6332 -1.1571 -5.7004 1.8583 -14.0309 4.4985 3.0777 7.2055 2.5445 1.6327 4.2700 -0.0000 -0.0000 0.0000 -85.9351 8.8275 23.2528 26.3640 -37.5659 -9.1087 -0.0000 -0.0000 27.1039 -3.1274 40.8716 -2.0476 -7.1250 0.0000 -0.0000 -49.1579 64.1070 -25.6533 -0.0000 -0.0000 0.0000 81.0047 -5.8716 40.8880 -22.4503 33.4822 -6.8326 0.0000 -0.0000 -9.5736 -21.3734 24.7534 -9.3062 7.1250 -0.0000 -0.0000 4.9467 -3.7231 4.6326
